# xmcd
#
# Track frame offsets: 
#        150
#        24274
#        48913
#        75377
#        96911
#        113910
#        137736
#        162038
#        179713
#
# Disc length: 2902 seconds
#
# Revision: 0
# Processed by: cddbd v1.4PL0 Copyright (c) Steve Scherf et al.
# Submitted via: ExactAudioCopy v0.90b2
#
DISCID=690b5409
DTITLE=Soulard Blues Band - In the Soulyard
DYEAR=1995
DGENRE=Blues
TTITLE0=You Upset Me
TTITLE1=Feel So Bad
TTITLE2=Harlem Nocturne
TTITLE3=Mondo Elvis
TTITLE4=Stumble
TTITLE5=Bad Whiskey
TTITLE6=St. Louis Blues
TTITLE7=Murder Man
TTITLE8=Mr. Donut Blues
EXTD=
EXTT0=
EXTT1=
EXTT2=
EXTT3=
EXTT4=
EXTT5=
EXTT6=
EXTT7=
EXTT8=
PLAYORDER=
